name C:\Users\u0101727\Documents\MyRepositories\upper-imu-dc\Results\main_tracking\Case_10\FLX01_linearAccelerations_groundFrame.mot
datacolumns 4
datarows 58
range 2.01000000 2.58000000
endheader 
time	radius_imu_x	radius_imu_y	radius_imu_z	
          2.01000000	          0.03732319	          8.78300267	         -0.94810259	
          2.02000000	          0.15436915	          8.66681838	         -1.16965576	
          2.03000000	          0.22702694	          8.59881618	         -1.27763120	
          2.04000000	          0.25020265	          8.58981713	         -1.26019708	
          2.05000000	          0.22849037	          8.63763042	         -1.13932839	
          2.06000000	          0.17564364	          8.72643656	         -0.96329872	
          2.07000000	          0.10953207	          8.83246698	         -0.78645602	
          2.08000000	          0.04413672	          8.93426659	         -0.64655660	
          2.09000000	         -0.01801256	          9.02223679	         -0.55062745	
          2.10000000	         -0.08648793	          9.10034585	         -0.47839128	
          2.11000000	         -0.17199208	          9.17681807	         -0.40443329	
          2.12000000	         -0.27106930	          9.25117872	         -0.32329164	
          2.13000000	         -0.36095983	          9.31005602	         -0.25652645	
          2.14000000	         -0.40886460	          9.33500941	         -0.23924658	
          2.15000000	         -0.38775321	          9.31506014	         -0.29935478	
          2.16000000	         -0.29068022	          9.25567030	         -0.43986662	
          2.17000000	         -0.13843701	          9.17977474	         -0.62933106	
          2.18000000	          0.02441126	          9.11980311	         -0.80695976	
          2.19000000	          0.14628685	          9.10413041	         -0.90625082	
          2.20000000	          0.18855013	          9.14638658	         -0.88495272	
          2.21000000	          0.13528971	          9.24414911	         -0.74005573	
          2.22000000	         -0.00893398	          9.38461026	         -0.50132241	
          2.23000000	         -0.22594792	          9.55086043	         -0.21381366	
          2.24000000	         -0.49002788	          9.72580790	          0.07881550	
          2.25000000	         -0.77229952	          9.89396533	          0.34449877	
          2.26000000	         -1.04432762	         10.04196095	          0.56592336	
          2.27000000	         -1.28115211	         10.15834530	          0.73875675	
          2.28000000	         -1.46322253	         10.23326692	          0.86744380	
          2.29000000	         -1.57679555	         10.25846444	          0.96032792	
          2.30000000	         -1.61267998	         10.22729410	          1.02462990	
          2.31000000	         -1.56403876	         10.13444337	          1.06176929	
          2.32000000	         -1.42491416	          9.97594272	          1.06445202	
          2.33000000	         -1.19096471	          9.75061733	          1.01728402	
          2.34000000	         -0.86297189	          9.46343587	          0.90218094	
          2.35000000	         -0.45241704	          9.12965753	          0.70841997	
          2.36000000	          0.01310996	          8.77713945	          0.44461775	
          2.37000000	          0.48801071	          8.44407037	          0.14702426	
          2.38000000	          0.91468764	          8.17100904	         -0.12419280	
          2.39000000	          1.23940083	          7.98950630	         -0.30587770	
          2.40000000	          1.42964428	          7.91378122	         -0.35983229	
          2.41000000	          1.48043562	          7.94046832	         -0.28735811	
          2.42000000	          1.40886319	          8.05403896	         -0.12324185	
          2.43000000	          1.24552129	          8.23244741	          0.08104476	
          2.44000000	          1.02714883	          8.45101384	          0.27423480	
          2.45000000	          0.78982939	          8.68530637	          0.41723089	
          2.46000000	          0.56307544	          8.91345122	          0.48830701	
          2.47000000	          0.36663124	          9.11755230	          0.48201861	
          2.48000000	          0.21047605	          9.28442655	          0.40474299	
          2.49000000	          0.09663163	          9.40656198	          0.27031310	
          2.50000000	          0.02141350	          9.48342561	          0.09715882	
          2.51000000	         -0.02238217	          9.52175326	         -0.09381569	
          2.52000000	         -0.04362471	          9.53353861	         -0.28162144	
          2.53000000	         -0.05138136	          9.53222210	         -0.44783748	
          2.54000000	         -0.05355395	          9.52891893	         -0.57884635	
          2.55000000	         -0.05553124	          9.53030221	         -0.66703216	
          2.56000000	         -0.05920838	          9.53871348	         -0.71068060	
          2.57000000	         -0.06289627	          9.55391464	         -0.71280752	
          2.58000000	         -0.06240623	          9.57497287	         -0.67963659	
